<?xml version="1.0" encoding="UTF-8"?>
<svg id="_レイヤー_2" data-name="レイヤー 2" xmlns="http://www.w3.org/2000/svg" viewBox="0 0 210.16 192.97">
  <defs>
    <style>
      .cls-1 {
        fill: #cd353d;
      }

      .cls-1, .cls-2, .cls-3 {
        stroke-width: 0px;
      }

      .cls-2 {
        fill: #d03c47;
      }

      .cls-3 {
        fill: #fef8ed;
      }
    </style>
  </defs>
  <g id="_レイヤー_1-2" data-name="レイヤー 1">
    <g>
      <rect class="cls-1" x="127.72" y="115.01" width="57.91" height="1.79"/>
      <rect class="cls-2" x="44.61" y="115.01" width="11.22" height="1.79"/>
      <g>
        <path class="cls-3" d="m142.24,112.58c.51.16,1.03.29,1.54.29.63,0,1.16.18,1.65.47h1.74c-.09,0-.2-.02-.29-.04-.16-.02-.34-.07-.49-.09.16-.11.31-.2.42-.34.11-.11.18-.27.27-.4-.13-.04-.25-.11-.38-.13-.18,0-.36.02-.54.02-.45-.02-.92-.04-1.39-.07-.45-.02-.92-.07-1.36-.09-.34-.02-.67-.04-1.01-.07-.16-.02-.31-.07-.47-.09.09.18.16.49.29.54Z"/>
        <path class="cls-3" d="m152.37,113.34h-.02c.49.56,1.05,1.01,1.85,1.12.11.02.2.07.29.13.16.11.31.22.45.31h1.3c-.74-.45-1.5-.85-2.3-1.14-.34-.13-.67-.22-.96-.42h.02c-.25-.13-.42-.36-.54-.74-.11-.4-.56-.71-.89-1.05-.09-.07-.31-.02-.47-.02,0,.11-.04.29.02.36.45.42.83.98,1.25,1.45Z"/>
        <path class="cls-3" d="m137.2,111.48c.92.63,1.83,1.25,2.75,1.85h.89c-.13-.04-.22-.11-.34-.2-1.01-.71-2.01-1.45-3.04-2.14-.2-.13-.51-.09-.78-.13.18.22.29.47.51.63Z"/>
        <path class="cls-3" d="m91.4,139.63c-.51-.02-1.65-1.03-1.72-1.52-.02-.16.04-.38.16-.47.38-.29.42-.67.4-1.09-.02-.25.02-.54.13-.76.36-.71.36-1.43.11-2.17-.25-.74-.13-.96.56-1.3.09-.04.18-.29.16-.45-.07-.65-.31-1.32-.25-1.94.11-1.05.42-2.1.65-3.15.02-.11.02-.25.04-.38-.16,0-.38-.07-.47,0-.16.13-.36.31-.38.51-.11.83-.36,1.7-.25,2.5.11,1.03-.29,1.83-.67,2.66-.38.8-.85,1.56-1.25,2.37-.07.16,0,.38.04.56.02.07.25.13.27.11.13-.16.2-.36.31-.51.2-.29.42-.56.65-.83,0,.34.11.71,0,1.03-.22.67-.56,1.3-.87,1.92-.02.07-.45.02-.47-.04-.27-.71-.47-1.43-.71-2.12-.07-.22-.2-.47-.38-.58-.4-.27-.76-1.12-.56-1.54.04-.09.16-.13.25-.2.04.07.11.13.16.22.04.11.07.25.13.36.18.29.38.54.58.8.25-.29.58-.56.76-.89.27-.51.42-1.09.69-1.63.27-.49.42-.94,0-1.43-.09-.11-.13-.34-.11-.49.09-.49.34-1.01.31-1.5-.02-.36-.38-.69-.63-1.01-.07-.07-.27-.07-.4-.07s-.27.07-.4.09c.04-.16.04-.38.16-.47.89-.78.71-1.97,1.01-2.95.47-1.63.67-3.31.96-4.98.11-.69.2-1.43.27-2.14,0-.09.02-.18.02-.27.02-.18-.18-.36-.29-.56-.13.2-.42.49-.36.63.02.07.04.13.07.2.09.42-.13.78-.22,1.16-.27,1.14-.45,2.32-.71,3.49-.2.85-.02,1.79-.54,2.59-.2.29-.4.65-.4.98.02.87-.29,1.54-.94,2.1-.38.31-.49.78-.25,1.21.36.63.31,1.12-.22,1.61-.13.13-.2.34-.27.51-.16.45-.29.89-.49,1.32-.07.13-.31.18-.47.25,0-.18-.07-.4,0-.56s.27-.25.38-.4c.29-.4.45-.83.02-1.27-.11-.13-.11-.42-.07-.6.11-.42.36-.85.42-1.27.31-1.76.6-3.53.87-5.29.04-.18-.11-.4-.18-.6-.11.18-.29.34-.34.54-.29,1.16-.56,2.32-.83,3.51-.16.69-.27,1.39-.45,2.08-.04.18-.27.31-.4.47-.04-.18-.13-.36-.11-.54.07-1.14.09-2.28.29-3.4.2-1.12.6-2.23,1.5-3.02.67-.6.83-.89.58-1.74-.02-.09-.07-.2-.04-.31.11-.89-.38-1.85.42-2.68.02-.02.04-.07.04-.11,0-.2-.18-.6-.27-.85-.02-.07-.18-.09-.27-.13-.11.25-.29.49-.34.76-.02.07-.02.16-.02.22-.11.8-.2,1.61-.27,2.44-.04.42.02.87-.02,1.3,0,.13-.18.27-.29.36-.02.02-.22-.09-.22-.13,0-.8-.11-1.59-.4-2.35-.02-.09.09-.25.13-.36.16-.42.27-.83.4-1.25h-26.9v.16c0,1.09.2,2.26-.58,3.13-.87.98-.85,2.06-.78,3.19.02.51.07,1.09.67,1.27.98.27,1.01,1.14,1.23,1.88.04.13-.18.34-.27.49-.11-.11-.22-.2-.29-.34-.16-.34-.25-.69-.4-1.01-.09-.16-.29-.27-.42-.4-.04.16-.16.34-.11.47.18.54.34,1.12.63,1.59.6.94,1.43,1.79,1.9,2.79.4.85.83,1.63,1.5,2.28.22.2.4.47.58.71-.34-.07-.67-.11-.98-.2-.51-.16-1.01-.36-1.52-.49-.11-.04-.29.13-.45.2.13.16.25.38.42.45.25.11.56.09.83.16,1.18.25,2.48.31,2.77,1.88.04.16.27.27.38.4.07.09.11.2.16.29-.11,0-.22-.02-.34-.04-.49-.13-.98-.31-1.47-.4-.16-.02-.36.22-.54.34.16.07.31.13.47.2.29.11.6.2.89.34,1.34.6,2.41,1.56,3.51,2.52.51.45,1.25.78,1.54,1.34.67,1.3,1.92,2.01,2.77,3.11.6.8,1.34,1.5,1.97,2.28.6.74,1.14,1.56,1.76,2.28.51.56,1.16.78,1.97.6.49-.11,1.09-.09,1.56.07.98.31,1.9.83,2.88,1.16.85.29,1.76.4,2.64.6,1.23.29,3.44-.58,4.22-1.61.65-.85,1.36-1.63,2.03-2.46.34-.4.76-.78.94-1.25.25-.67.34-1.39.42-2.1.04-.34-.07-.69-.09-1.05-.02-.29-.13-.65,0-.83.34-.42.25-.49-.22-.51Zm-3.33-12.11c.02-.13.13-.27.2-.4.07.11.13.2.2.31.07.13.13.27.18.4,0,.02.02.04.02.07.16.47.13.96-.07,1.47-.18.4-.36.69-.51.98,0-.04-.02-.11-.02-.16-.07-.31-.13-.63-.13-.94,0-.58.07-1.16.13-1.74Z"/>
        <path class="cls-3" d="m120.31,95.98c.13-1.5.54-2.97.78-4.47.27-1.59.49-3.19.67-4.8.11-1.05-.04-2.14.18-3.17.31-1.47.71-2.95,1.32-4.33.76-1.7,1.76-3.31,2.59-4.98.42-.87.96-1.79.04-2.7-.09-.09-.13-.25-.13-.36.09-1.39-.65-2.48-1.43-3.46-1.05-1.27-2.21-2.46-3.44-3.57-.69-.65-1.56-1.14-2.44-1.56-1.03-.51-2.1-.92-3.17-1.32-1.52-.56-3.02-1.18-4.58-1.56-2.26-.56-4.58-.89-6.81-1.65-1.43-.47-2.99-.51-4.36-1.25-1.16-.63-2.37-.92-3.73-.71-1.74.27-3.33.85-4.31,2.35-1.12,1.72-2.75,2.88-4.36,3.93-1.18.76-1.88,1.7-2.48,2.84-.42.83-.54,1.54-.09,2.41.38.78.47,1.68-.27,2.39-.13.11-.27.27-.29.42-.04.2.02.42.04.65.11-.11.29-.22.38-.36.16-.22.27-.49.42-.71.04-.09.16-.13.25-.2.04.13.13.25.13.36-.04.67-.89,1.52-1.54,1.68-.2.04-.4.31-.49.51-.36.76-.65,1.52-.98,2.28-.04.11-.2.22-.31.22-.74-.02-1.54.22-2.12-.54-.16-.2-.49-.36-.78-.4-1.61-.29-3.11-.92-4.56-1.65-1.16-.6-2.3-1.32-3.51-1.83-1.01-.45-1.88-1.03-2.61-1.83-.45-.47-.83-1.01-.67-1.7.13-.54.36-1.05.51-1.59.04-.16.07-.34.09-.51h-.45c-.4,0-.83-.04-1.23.02-.56.09-1.09.27-1.63.4-.58.13-1.14.36-1.7.38-.47.02-.71.25-1.01.54-1.03,1.01-2.08,1.94-3.13,2.93-.16.16-.45.36-.42.45.2.65.36,1.36.76,1.88.49.67,1.34,1.07,1.79,1.74,1.59,2.32,2.37,4.96,2.37,7.75,0,1.83-.31,3.64-.38,5.47-.04,1.16.11,2.3.11,3.46.02,2.12.02,4.24.02,6.39h26.59c.04-.18.09-.38.18-.56.11-.27.13-.6.13-.89-.04-1.52.56-2.84,1.47-3.93,1.39-1.68,1.59-3.44,1.03-5.43-.27-.92-.49-1.83-.69-2.75-.2-1.05-.71-1.81-1.68-2.35-.67-.38-1.23-.96-1.81-1.47-.49-.45-.96-.92-1.39-1.41-.11-.13-.11-.42-.07-.6.11-.36.31-.71.4-1.07.29-1.18.49-2.39,1.23-3.42.85-1.16,1.41-1.47,2.35-.87,1.09.71,2.28.96,3.55.92.22-.02.58.2.69.42.38.74.78,1.47.96,2.28.31,1.41.47,2.88.71,4.31.29,1.68.58,3.33.94,4.98.51,2.48,1.12,4.96,1.65,7.44.34,1.47.65,2.93.96,4.4h19.7c0-.07,0-.13.02-.2Zm-33.6-22.41s-.02.11-.04.18c-.22.76-.36,1.45-.58,2.14-.07.2-.36.54-.51.51-.16-.02-.22-.07-.25-.16-.04-.13.04-.31.09-.49.29-1.16.51-2.35.85-3.49.18-.6.54-1.16.85-1.7.09-.13.36-.13.54-.2.02.07.04.13.07.2.02.07.04.13.04.2.02,1.07-.65,1.88-1.05,2.79Z"/>
        <path class="cls-3" d="m209.31,176.41c-.25-.65-.6-1.25-.89-1.9-.11-.25-.31-.65-.2-.78.49-.67-.02-1.07-.45-1.32-.96-.6-1.09-1.59-1.39-2.52-.25-.78-.49-1.59-.85-2.32-.34-.67-.83-1.27-1.21-1.92-.13-.27-.16-.6-.22-.89.25.13.47.31.71.4.22.07.49.04.74.07,0-.22.04-.45,0-.65-.09-.38-.25-.71-.4-1.07-.29-.67-.6-1.32-.92-1.97-.07-.11-.2-.18-.31-.25-1.01-.58-1.59-1.54-2.14-2.5-.09-.16.07-.42.11-.65.13.11.25.22.38.34.13.11.31.2.47.31.07-.11.16-.22.2-.34.04-.16.07-.34.11-.49.11.13.18.29.31.42.16.13.34.25.49.38.07-.22.22-.54.13-.65-.45-.58-.78-1.16-.92-1.9,0-.09-.25-.13-.38-.2,0,.11-.02.22,0,.34.04.18.11.38.13.56.02.11-.07.25-.09.36-.11-.09-.27-.13-.31-.22-.47-.85-.96-1.7-.85-2.75.02-.25-.02-.54-.11-.78-.47-1.12-.94-2.23-1.41-3.35-.07-.22-.11-.45-.16-.67.18.07.36.18.54.18.29-.02.6-.07.83-.22.09-.07,0-.54-.13-.71-.25-.34-.6-.6-.89-.92-.11-.11-.2-.25-.31-.36-.09.16-.25.29-.25.42-.02.4-.22.31-.42.18s-.38-.31-.49-.49c-.76-1.18-1.47-2.39-2.28-3.53-.47-.69-1.05-1.36-1.72-1.81-.87-.58-1.54-1.34-2.19-2.12-.09-.09-.07-.29-.09-.42.11.04.25.04.34.13.47.45.92.94,1.41,1.39.11.13.34.13.51.2-.02-.2.02-.47-.09-.56-.63-.58-1.3-1.12-1.97-1.68-.51-.45-1.16-.8-1.54-1.34-1.43-2.12-3.24-3.8-5.27-5.29-.85-.63-1.65-1.45-2.21-2.35-1.47-2.37-2.99-4.69-4.96-6.68-.2-.22-.54-.31-.8-.47.13.31.2.74.45.89,1.14.76,1.76,1.92,2.5,2.97.65.89,1.18,1.88,1.76,2.84.07.09.07.22.09.34-.11-.04-.25-.09-.34-.16-.11-.09-.22-.18-.29-.29-.65-1.01-1.3-2.01-1.94-3.04-.54-.87-1.09-1.74-2.17-1.97-1.36-.29-2.35-1.16-3.35-2.03-.96-.83-1.88-1.72-2.9-2.46-1.81-1.32-3.69-2.61-5.59-3.8-.25-.16-.51-.29-.78-.42-.71-.34-1.45-.6-2.17-.92-.09-.04-.22.02-.34.04.04.11.07.27.16.34.11.09.27.11.4.18.36.2.71.4,1.05.6.83.47,1.63.94,2.41,1.47,1.07.76,2.03,1.63,3.04,2.48.74.63,1.47,1.3,2.21,1.94.09.09.11.22.18.34-.11-.02-.25-.02-.34-.09-2.93-2.14-6.21-3.64-9.32-5.45-.36-.22-.74-.42-1.14-.58-.16-.07-.38.04-.56.09.09.16.16.36.29.42.87.45,1.76.85,2.64,1.3.78.4,1.56.8,2.32,1.23.11.07.18.25.27.38-.16,0-.36.07-.49,0-.51-.2-1.01-.47-1.52-.67-1.05-.4-2.14-.67-3.17-1.14-1.09-.49-2.19-1.03-3.19-1.72-.07-.04-.16-.11-.22-.16-.54-.38-1.07-.76-1.61-1.09h-1.3c.58.4,1.16.8,1.7,1.25.04.02.09.07.11.09,1.07.85,2.14,1.72,3.19,2.59.07.07.09.22.13.34-.13.02-.29.04-.42.04-.11,0-.22-.07-.29-.13-.98-1.14-2.32-1.76-3.55-2.57-.18-.11-.36-.25-.54-.36-.63-.42-1.27-.83-1.92-1.25h-1.14c.63.45,1.3.83,1.94,1.25.18.11.36.22.54.36.89.67,1.76,1.39,2.64,2.1.18.13.29.38.45.56.25.31.49.65.76.94.45.49.92.98,1.36,1.47.07.07,0,.25,0,.38-.11-.02-.22-.02-.31-.07-.11-.07-.2-.18-.31-.27-1.23-1.05-2.35-2.32-4.2-2.23-.2,0-.42-.34-.65-.51.25,0,.49,0,.71-.02.18-.02.38-.09.56-.13-.02-.13-.02-.31-.11-.38-.74-.67-1.47-1.32-2.23-1.94-.13-.11-.4-.09-.6-.11.09.18.13.4.27.56.27.34.6.63.89.94.07.07.02.22.02.36-.09-.04-.2-.04-.27-.11-.27-.27-.54-.56-.78-.85-.29-.36-.58-.71-.92-1.03-.45-.47-.94-.87-1.47-1.25h-1.3c-.07.11-.2.25-.18.27.16.13.36.36.51.36.65-.04,1.16.25,1.61.63.11.09.2.18.29.27.25.22.38.58.56.89-.36-.18-.8-.25-1.07-.51-.34-.34-.69-.51-1.09-.65-.09-.02-.18-.07-.27-.09-.45-.16-.94-.38-1.18-.74-.08-.13-.17-.27-.25-.4h0c-.16-.25-.31-.45-.63-.56-.07-.02-.09-.16-.13-.22.07-.04.13-.09.2-.11l.47-.2c-.16-.13-.29-.29-.45-.36-.13-.04-.27-.09-.4-.11h-1.74c.2.11.38.27.54.42.35.33.68.72,1.03,1.12h0c.27.29.54.6.83.87.13.11.27.25.38.38.96.98,1.74,2.14,3.08,2.68.11.07.2.25.29.36-.16-.02-.31-.04-.47-.09-.22-.04-.42-.13-.63-.2.16.2.29.4.45.58.09.07.22.11.34.18.51.38,1.03.76,1.52,1.14.09.07.11.22.16.34-.13-.07-.27-.09-.38-.16-1.07-.74-2.1-1.5-3.17-2.19-1.39-.89-2.81-1.72-4.22-2.59-.02-.02-.04-.02-.07-.04-.65-.4-1.27-.83-1.92-1.25h-.01c-.39-.26-.78-.52-1.17-.76-.4-.27-.8-.51-1.21-.78h-.89c.78.51,1.54,1.05,2.32,1.56h.03c.17.1.33.21.48.34.42.29.85.6,1.25.89.42.31.87.6,1.32.89,1.34.85,2.75,1.59,4.07,2.46,1.25.83,2.44,1.72,3.6,2.64.54.42,1.16.89,1.41,1.47.25.54.54.87.98,1.16.8.54,1.47,1.18,1.94,2.06.13.27.47.4.71.6.31.25.38,0,.29-.2-.11-.25-.34-.47-.49-.69-.09-.11-.13-.22-.18-.34.13.02.29.02.4.09.67.38.76,1.07.96,1.7.07.18.09.49,0,.56-.54.38-.11.83-.09,1.23,0,.09.49.16.74.25.2.09.45.16.56.31.2.31.34.65.47.98.6,1.5,1.18,2.99,1.79,4.49.47,1.14.94,2.28,1.41,3.42.07.13.02.29.02.45-.16-.04-.34-.04-.49-.13-.09-.07-.16-.2-.22-.31-.47-.78-.94-1.54-1.43-2.3-.07-.13-.22-.25-.36-.29-.04-.02-.25.13-.25.18.07.47.02,1.14.29,1.34.56.4.8.94,1.03,1.52.11.27.27.51.45.71.29.31.45.54.09.92-.31.34-.27.71,0,1.12.27.42.58.87.71,1.34.18.65.38,1.25.94,1.68.09.09.2.27.18.34-.27.58.22.92.42,1.36.09.2.2.38.27.58.34.96.54,1.99,1.18,2.82.11.13.2.36.18.54-.11.71.18,1.3.54,1.85.16.25.22.51.29.78.2.78.34,1.56.51,2.35.31,1.41.67,2.79,1.01,4.2.02.09.02.25-.02.27-.11.02-.27.07-.36,0-.92-.63-1.85-1.23-2.73-1.9-1.68-1.27-3.28-2.59-4.96-3.84-1.3-.98-2.64-1.88-4.18-2.39-.58-.2-1.23-.18-1.76-.42-.74-.31-1.41-.83-2.12-1.18-.67-.34-1.39-.54-2.03-.89-1.18-.63-2.32-1.34-3.51-1.99-.67-.36-1.45-.6-2.03-1.07-2.01-1.63-4.16-3.08-6.37-4.42-.51-.31-.98-.83-1.54-.94-1.25-.29-2.39-.76-3.46-1.45-.09-.04-.2-.07-.29-.11-.74-.4-1.52-.76-2.23-1.23-.47-.31-.78-.92-1.27-1.21-.87-.51-1.27-1.83-2.61-1.56-.04,0-.11-.09-.16-.13-.96-.96-2.03-1.85-2.88-2.93-1.16-1.43-2.19-2.97-3.17-4.54-.67-1.05-1.16-2.21-1.76-3.37-.8-1.88-1.56-3.71-2.35-5.54-.45-1.05-.76-2.14-1.01-3.24h-8.6c.18.47.34.96.51,1.43.54,1.5,1.07,2.99,1.65,4.47.69,1.76,1.41,3.55,2.21,5.27.58,1.25,1.32,2.44,2.01,3.64.69,1.18,1.32,2.44,2.12,3.53,1.25,1.72,2.61,3.37,3.98,5.03.58.74,1.3,1.39,1.92,2.1.11.11.11.34.16.51-.18-.02-.4,0-.51-.09-1.16-1.09-2.35-2.21-3.49-3.35-.25-.27-.4-.63-.65-.89-.13-.13-.47-.29-.54-.22-.49.49-.56.07-.76-.25-.42-.6-.89-1.18-1.36-1.76-.07-.09-.31-.18-.4-.13-.42.27-.47.04-.6-.31-.29-.8-.69-1.56-1.05-2.32-.65-1.36-1.3-2.73-1.92-4.09-.42-.94-.85-1.9-1.27-2.84-.04-.11-.11-.22-.09-.31.02-.13.11-.27.18-.4.09.11.16.2.22.31.47.89.94,1.79,1.41,2.66.09.13.22.22.34.34,0-.18.09-.38.02-.51-.34-.71-.69-1.45-1.05-2.17-.78-1.85-1.63-3.53-2.37-5.32-.51-1.32-.85-2.73-1.25-4.09-.02-.07-.04-.16-.07-.22h-2.7c.29,1.32.56,2.64.94,3.91.36,1.16.89,2.28,1.36,3.42.87,2.12,1.63,4.29,2.59,6.37,1.16,2.5,2.32,5.05,4.02,7.28,1.3,1.7,2.48,3.51,3.87,5.14,1.5,1.74,3.13,3.33,4.76,4.92,1.18,1.12,2.39,2.26,3.73,3.15,2.41,1.59,4.45,3.62,6.7,5.38,1.32,1.05,2.55,2.17,3.82,3.26,1.81,1.56,3.6,3.15,5.41,4.71,1.09.94,2.19,1.92,3.28,2.86,1.54,1.34,3.13,2.66,4.67,4,.83.71,1.5,1.61,2.39,2.19,2.37,1.52,4.38,3.49,6.43,5.38,1.47,1.36,2.93,2.79,4.42,4.13.65.6,1.41,1.09,2.14,1.61.63.45,1.3.83,1.94,1.27.2.13.36.34.54.51-.22.11-.47.22-.67.36-.11.07-.2.2-.29.31.13.09.25.2.38.22.13.04.29-.02.45-.04.78-.07,1.65-.36,2.37-.16,1.74.54,3.49,1.21,5.16,1.97,1.12.51,2.08,1.41,3.24,1.81,1.47.49,3.06.67,4.6,1.01.98.2,1.99.42,2.95.69.8.22,1.5.87,2.41.67.22-.04.94.22.36-.47,0,0,.16-.2.18-.2.49.2.98.38,1.45.63.74.4,1.47.67,2.32.45,1.21-.31,2.39-.71,3.69-.56.34.04.67-.09,1.01-.13-.25-.22-.51-.45-.76-.69-.11-.11-.2-.25-.29-.38.18-.02.34-.07.51-.07.16,0,.34.04.42.13.65.63,1.36.83,2.21.45.2-.11.42-.2.63-.31-.18-.18-.36-.36-.54-.51-.07-.04-.18-.02-.25-.07-.2-.16-.38-.34-.56-.49.25-.04.49-.09.74-.13.04,0,.11-.02.13,0,.4.34.78.11.87-.22.07-.27-.25-.63.13-.94.11-.09.07-.38.04-.56-.02-.09-.18-.13-.25-.22-.07-.11-.18-.29-.16-.34.09-.11.29-.25.38-.2.58.27,1.16.27,1.76.34.4.04.6-.04.71-.27.36-.69,1.09-1.07,1.3-1.92.11-.45,0-.47-.29-.49-.27-.02-.56.02-.83-.02-.16-.02-.29-.2-.42-.31.11-.07.22-.22.29-.2.58.13.83-.34,1.21-.6.18-.11.58-.2.74-.09,1.12.71,1.41.47,2.1-.27.13-.13.25-.31.36-.47-.22-.11-.45-.34-.67-.31s-.47.25-.69.38c-.13.09-.29.2-.45.27-.04.02-.25-.18-.22-.2.07-.16.2-.27.29-.42.11-.18.36-.42.31-.56-.18-.63.22-.83.65-.98.27-.11.6-.09.89-.16.2-.02.38-.11.56-.16-.13-.16-.22-.36-.4-.47-.45-.31-.29-.58.02-.87.13-.11.25-.22.38-.27.45-.13.42-.31.11-.58-.34-.29-.18-.49.16-.51.74-.04.4-.4.25-.74-.07-.16-.18-.4-.11-.49.11-.13.38-.31.54-.27.92.27.49-.34.38-.58Zm-57.91-58.31c-.09-.07-.2-.18-.29-.27.16,0,.31-.02.45.02.04.02.07.16.09.22-.13.07-.2.07-.25.02Zm2.64,4.04c-.25-.22-.49-.42-.74-.63.34.11.58.29.8.47.02,0-.04.11-.07.16Zm2.37,1.34c-.54-.45-1.03-.98-1.52-1.47-.83-.74-1.59-1.39-2.3-2.06-.07-.07-.13-.18-.18-.27-.02-.04-.04-.11-.09-.16.18,0,.45-.07.56.02.85.71,1.68,1.47,2.5,2.23.47.45.92.94,1.39,1.41l.34.34c-.25-.02-.56.07-.69-.04Zm1.5-.34c.07-.07.13-.11.2-.16.09.13.16.27.22.4-.18-.04-.29-.16-.42-.25Zm-36.93,8.82s-.04-.09-.07-.16c0-.07-.02-.11-.02-.18,0-.04,0-.09-.02-.13.13.04.34.04.4.13.71.92,1.41,1.83,2.08,2.77,0,.02.02.04.02.07,0,.07-.07.18-.09.27-.8-.87-1.56-1.81-2.3-2.77Zm-11.82-8.56c.16.27.31.54.42.8.04.04.04.13.04.2s-.02.13-.02.2c-.16-.04-.29-.09-.42-.13-.07-.09-.07-.11-.07-.13,0-.31.02-.63.04-.94Zm-2.12-.96c-.25-.63-.47-1.25-.69-1.9,0-.04.07-.13.11-.2.09.07.22.09.27.18.27.6.49,1.21.74,1.81-.16.36-.31.38-.42.11Zm11.68,20.24c-.42-.34-.87-.67-1.21-1.07-1.01-1.23-1.99-2.5-2.97-3.78-.6-.98-1.16-1.83-1.74-2.73l-.02-.02c-.27-.47-.54-.94-.8-1.41-.54-.96-1.05-1.92-1.52-2.93-.25-.56-.49-1.12-.71-1.68-.54-1.27-1.03-2.57-1.54-3.87,0,0,0-.02-.02-.02-.02-.02-.04-.07-.07-.11-.02-.02-.02-.07-.02-.09.04-.16.11-.31.18-.47.09.11.2.2.25.34.56,1.27,1.03,2.55,1.63,3.8.94,1.97,1.9,3.89,2.93,5.81.67,1.23,1.43,2.46,2.21,3.62.58.87,1.3,1.65,1.97,2.48.54.67,1.12,1.3,1.65,1.94.02.02.02.04.04.07,0,.02.02.07.02.11.02.02.02.04.02.04-.09-.02-.2,0-.27-.04Zm.31-1.32c-.87-.92-1.74-1.83-2.61-2.77-.11-.11-.09-.31-.13-.47.16.02.34,0,.42.09.83.71,1.65,1.45,2.46,2.19.18.16.27.42.4.65-.09.47-.2.65-.54.31Zm1.56.85c-.18,0-.38-.02-.56-.02.04-.11.04-.29.11-.31.18-.04.4-.04.6-.07.16.11.18.22.22.34-.13.02-.25.07-.38.07Zm2.82,2.23c-.34-.27-.67-.56-1.01-.85-.18-.18-.31-.27-.42-.45-.11-.11-.2-.25-.31-.38.2.04.47.02.6.13.47.4.94.83,1.39,1.25.02.02.02.04.04.07.02.07.02.16.02.22-.09,0-.25.04-.31,0Zm8.51-1.68c-.45-.29-.85-.63-1.25-.96-.04-.02-.04-.09-.04-.16v-.22c.11,0,.27-.04.36.02.36.22.69.49,1.05.76.13.2.22.31.29.42-.13.04-.34.18-.4.13Zm1.3,1.59v-.02s.02-.11.02-.16c.13.07.25.11.38.18.07.18.07.27.07.34-.16-.11-.31-.2-.47-.34Zm1.61,1.32c-.13-.04-.25-.16-.38-.22l.34-.34c.27.16.38.31.49.49-.16.02-.31.09-.45.07Zm4.31,5.29c-.87-.6-1.72-1.25-2.57-1.88-.07-.04-.07-.2-.09-.29.11,0,.25-.04.34,0,.51.31,1.01.65,1.52.96.04.02.11.02.18.04.36.31.65.54.92.8.09.07.07.25.11.36-.13,0-.31.07-.4,0Zm4.65,4.09c-.51-.36-1.01-.74-1.52-1.12-.6-.45-1.21-.92-1.81-1.39-.09-.09-.09-.29-.13-.42.13,0,.34-.04.42.02,1.01.71,1.99,1.45,2.99,2.19.16.18.29.25.36.36.07.09.04.22.07.34-.13,0-.29.07-.38.02Zm27.46-23.99c0,.13-.02.27-.04.4-.02.07-.16.09-.25.13-.27-.63-.54-1.25-.78-1.88-.02-.02.09-.09.13-.13.6.34.94.89.94,1.47Zm-.78-4c-.16-.04-.36-.07-.47-.18-.87-.74-1.74-1.47-2.55-2.28-.6-.6-1.09-1.34-1.61-2.01-.04-.04-.04-.11-.04-.18v-.22c.09.02.22.02.29.09.31.27.6.51.92.78.6.34.98.63.96,1.3,0,.29.63.67,1.03.87.63.31,1.27.56,1.5,1.3.04.18-.02.36-.02.54Zm-2.61-.8c-.13.04-.29.18-.4.13-.2-.09-.45-.25-.47-.4v-.11c0-.27.09-.54.11-.78.22.18.38.42.54.69.09.13.16.31.22.47Zm-2.41-5.52c.36.22.69.47,1.03.69.89.51,1.65.98,2.39,1.54.38.31.74.65,1.07.98l.36.36c.07.04.04.18.07.27-.09,0-.2.04-.29.02-.18-.07-.4-.11-.51-.25-.07-.09-.13-.16-.22-.25-1.12-1.14-2.57-1.81-3.87-2.68-.13-.07-.29-.16-.36-.27-.07-.16-.04-.34-.07-.51.13.02.29.02.4.09Zm-5.21-.8c.16.02.4-.02.49.07.36.38.65.8.96,1.23.02.04-.07.22-.09.22-.18-.04-.34-.09-.51-.16-.34-.31-.54-.6-.74-.94,0,0,0-.02-.02-.02-.07-.11-.07-.27-.09-.4Zm1.72,7.82c-.13-.07-.29-.11-.38-.22-.31-.45-.65-.87-.92-1.32-.09-.16-.2-.29-.29-.45-.09-.13.07-.38.11-.56.13.09.31.16.38.27.04.07.09.13.11.18.02.02.04.07.04.09.09.18.18.38.27.56.25.31.42.58.58.85l.02.02c.09.18.07.4.07.58Zm.47-6.21c-.04-.09,0-.29.07-.38v-.02l.02-.02.02-.02c.22-.07.31-.16.36-.27.07-.18-.07-.4-.18-.6-.13-.31-.25-.6-.36-.92.27.13.58.22.8.4.4.34.76.71,1.12,1.09.07.09.07.22.09.34-.09,0-.2,0-.31-.02-.04,0-.09-.09-.16-.09-.25-.02-.65-.11-.69-.02-.09.16-.11.38-.11.6,0,.07,0,.13.02.2,0,.18.13.34.22.51.25.51.45,1.01.6,1.52.07.2.16.42.22.63.02.04.02.09.02.13,0,.07,0,.13.02.18-.11-.02-.25,0-.31-.07-.16-.16-.34-.31-.42-.51-.36-.89-.71-1.76-1.05-2.66Zm.25,11.39c.07-.38.11-.63.38-.34.11.13.25.27.29.42.02.04.02.09.02.11.04.16.04.31.07.49v.04c-.2-.13-.38-.27-.56-.42-.09-.07-.13-.2-.2-.31Zm1.07,2.28c-.09-.16-.16-.31-.22-.49-.02-.07-.07-.13-.09-.2.16-.04.27-.02.31.04.02.04.04.07.07.11,0,.02.02.02.02.04.04.09.09.16.13.25.02.02.02.07.04.09.02.02.02.07.04.09-.11.04-.29.09-.31.07Zm.45,6.23c-.04.22-.13.42-.2.65-.11-.09-.34-.16-.34-.25,0-.11-.02-.22-.02-.34,0-.18.04-.36.36-.38.11.07.18.13.2.22v.09Zm.27-14.28c-.04-.07-.09-.13-.11-.18-.07-.09-.11-.18-.16-.27-.09-.13,0-.38.02-.58.18.16.38.27.49.45.2.34.36.71.54,1.07.18.04.27.09.31.18v.02c0,.11.02.2.02.31v.38c-.13-.13-.31-.29-.42-.45t-.04-.04c-.25-.31-.47-.6-.65-.89Zm1.39,18.68s-.02-.02-.02-.04v-.02s-.02-.09-.04-.13c-.16-.25-.27-.45-.4-.63-.02-.04-.04-.07-.07-.11-.27-.36-.45-.71-.31-1.21.11-.38.04-.8,0-1.18-.04-.4-.18-.8-.25-1.21,0-.07.07-.16.09-.22.04.04.13.04.18.07.02,0,.02.02.04.04.13.2.31.38.36.6.18.71.27,1.45.45,2.17.13.54.42,1.03.58,1.54.07.25.02.54.04.8-.22-.16-.45-.29-.65-.47Zm1.18-3.51c-.13-.13-.29-.27-.36-.42-.2-.45-.38-.94-.56-1.41-.07-.38-.18-.71-.25-1.05-.04-.16-.07-.31-.11-.47-.02-.09.04-.27.13-.31.07-.02.27.04.31.11.04.09.09.18.13.29.04.11.09.25.11.36.13.4.27.78.4,1.16s.25.76.36,1.16c.04.16-.11.38-.18.58Zm.13-14.03s-.04-.11-.07-.16c0-.02.34-.22.34-.2.34.42.67.22,1.05.04.11-.07.31,0,.45.07.13.09.2.25.31.38-.16.04-.31.18-.47.16-.69-.04-.78.31-.74.8v.11c0,.11-.13.22-.2.34-.27-.56-.47-1.05-.67-1.54Zm.65,18.19c-.02.07-.02.13-.04.2-.09-.09-.18-.18-.27-.27.13-.18.27-.22.4-.27-.02.11-.04.22-.09.34Zm.67,2.52s-.13.04-.22.07c-.07-.25-.13-.49-.2-.74.02-.29.07-.45.13-.63.09.11.2.25.31.36.04.04.11.11.11.16-.04.27-.07.54-.13.78Zm1.32-15.04c-.31-.18-.58-.49-.98-.16-.31,0-.63,0-.63-.13,0-.07.07-.16.25-.27.2-.16.27-.34.27-.49s-.09-.31-.18-.47c-.11-.25-.31-.42-.45-.65-.07-.13-.04-.31-.07-.47.16.04.4,0,.49.11.25.29.6.63.63.96.04.49.31.65.63.85.16.09.34.16.42.29.07.11.07.31.09.47-.16-.02-.34.02-.47-.04Zm1.7,16.44c-.34-.02-.71-.65-.69-.94,0-.04.02-.07.02-.11.02-.04.2-.04.29,0,.16.09.25.2.31.34t.02.04c.04.11.07.25.07.38-.02.09-.02.2-.02.29Zm2.64-16.6c-.09-.11-.2-.22-.29-.34.13-.13.27-.13.4-.13-.04.16-.07.31-.11.47Zm1.3-7.33c-.6-.56-1.18-1.16-1.76-1.72-.31-.31-.67-.58-1.01-.87-.2-.13-.34-.22-.42-.34-.07-.07-.07-.13-.11-.22v-.02c.11-.02.27-.11.34-.07.42.27.87.49,1.23.83.78.69,1.5,1.47,2.23,2.21.02,0,.02.02.02.04,0,.07,0,.13,0,.2-.18,0-.42.04-.51-.04Zm5.83,7.42c-.11-.07-.22-.11-.29-.2-.85-1.3-1.7-2.61-2.57-3.93-.36-.54-.74-1.03-1.12-1.54-.22-.29-.36-.51-.51-.74.22.13.54.2.69.4,1.27,1.74,2.5,3.51,3.75,5.25.04.07.11.13.13.2.02.04.04.09.04.13,0,.16-.09.29-.13.42Zm23.88,47.97c-.29.11-.31.74-.8.4,0-.31.02-.6.2-.8.07-.07.4.04.6.11v.02s.02.11.02.18c0,.04,0,.09-.02.09Zm1.43-1.85c-.13.34-.47.58-.71.87t-.02-.04c-.04-.11-.13-.22-.16-.34-.02-.04-.02-.09,0-.11.07-.25.25-.45.38-.67.27-.04.58-.09.58.11-.02.04-.02.11-.07.18Z"/>
        <path class="cls-3" d="m60.19,55.07c.29,0,.6.2.89.31-.13.25-.25.51-.42.71-.18.18-.4.34-.63.47-.22.16-.49.25-.74.38-.09.07-.16.2-.22.29.13.04.27.13.4.16.09,0,.2-.07.29-.11,1.05-.45,2.08-.96,3.15-1.34.96-.34,1.94-.74,2.99-.58.25.02.54.2.67.4.07.11-.11.47-.27.6-.4.34-.87.65-1.34.89-1.81.89-3.64,1.76-5.45,2.64-.11.04-.2.16-.29.25.16.07.29.13.42.16.09.02.2-.07.29-.11,2.46-1.05,4.92-2.1,7.39-3.11.89-.36,1.85-.63,2.79-.87.2-.07.49.09.74.16-.18.11-.36.25-.56.36-1.05.54-2.12,1.07-3.17,1.63-.13.07-.2.2-.31.29.18.04.36.18.49.13.51-.18,1.03-.38,1.52-.63,1.14-.56,2.23-1.18,3.37-1.7,1.27-.58,2.61-1.07,3.93-1.61,1.12-.45,2.26-.85,3.37-1.32,1.05-.45,2.08-.92,3.11-1.45.89-.47,1.72-1.03,2.61-1.5.22-.11.51-.09.78-.11-.16.18-.29.38-.45.56-.18.18-.34.38-.54.54-1.14.96-2.26,1.94-3.44,2.86-.74.58-1.56,1.01-2.32,1.54-.16.11-.22.38-.31.56.2-.02.4-.02.6-.07.07-.02.09-.09.16-.13,2.01-1.3,3.98-2.66,6.05-3.84,2.99-1.72,6.03-3.37,9.09-4.96,2.81-1.45,5.7-2.77,8.58-4.18.87-.38,1.74-.65,2.73-1.09,1.39-.74,2.75-1.5,4.07-2.35,1.23-.78,2.21-1.79,2.81-3.17.56-1.27.49-2.59.54-3.91.07-2.1-.6-4-1.39-5.9-.89-2.12-2.5-3.66-4.09-5.21-1.09-1.07-2.19-2.14-3.24-3.26-.56-.6-.89-1.43-1.5-1.97-1.36-1.21-2.86-2.26-4.27-3.42-.65-.51-1.21-1.12-1.79-1.7-.78-.76-1.5-1.61-2.37-2.26-1.32-.96-2.77-1.74-4.13-2.64-1.36-.89-2.68-1.83-4.04-2.73-.85-.56-1.72-1.05-2.57-1.61-.34-.22-.63-.49-.96-.74-.34-.25-.69-.67-1.05-.67-1.27,0-2.5-.07-3.66-.67-.34-.18-.63.02-.51.34.38,1.12-.13,2.06-.6,2.95-.31.6-.47,1.05.07,1.59.13.16.22.42.22.65.04,2.23.11,4.49-.6,6.64-.74,2.17-1.47,4.31-2.95,6.14-1.09,1.39-1.99,2.93-3.11,4.29-1.5,1.81-3.08,3.55-4.71,5.27-1.34,1.39-2.75,2.73-4.18,4.02-.8.71-1.76,1.25-2.64,1.92-.58.42-1.27.85-1.59,1.43-.71,1.36-2.03,2.06-3.11,2.99-1.39,1.21-2.88,2.26-4.31,3.37-.85.67-1.65,1.32-2.5,1.97-1.47,1.12-2.95,2.21-4.42,3.31-1.3.96-2.57,1.94-3.89,2.88-1.47,1.05-2.99,2.03-4.42,3.11-1.03.78-1.97,1.68-2.95,2.52-1.25,1.05-2.52,2.06-3.71,3.17-1.14,1.07-2.1,2.35-3.28,3.35-1.3,1.12-2.77,2.01-4.18,2.99-.34.25-.69.42-1.03.65-.07.04-.04.2-.07.31.09,0,.2.02.29,0,1.85-.51,3.62-1.21,5.34-2.08,1.23-.6,2.37-1.36,3.62-1.92,2.23-.98,4.51-1.94,6.81-2.82,2.48-.94,5-1.74,7.53-2.59.25-.09.54-.04.8-.07-.22.2-.42.4-.65.58-.07.07-.16.07-.25.09-.6.22-1.21.45-1.79.69-.13.04-.22.22-.34.34.16.02.31.11.45.07.69-.25,1.39-.51,2.08-.8.58-.25,1.14-.54,1.74-.76.22-.09.51-.04.78-.04-.18.16-.34.38-.56.47-1.03.45-2.08.87-3.11,1.3-.16.07-.29.2-.42.31.16,0,.31.02.45-.02,1.47-.56,2.93-1.12,4.4-1.68.16-.07.34-.04.51-.07-.13.09-.22.25-.36.31-1.76.85-3.51,1.83-5.43,2.35-.54.13-1.05.34-1.56.56-.13.04-.18.27-.25.42.13,0,.25,0,.36-.02.38-.09.76-.16,1.12-.29,1.34-.51,2.68-1.03,4.02-1.59,1.21-.49,2.37-1.05,3.55-1.56.11-.04.29,0,.42.02-.09.09-.2.18-.31.25-.96.51-1.92,1.01-2.88,1.52-.11.07-.2.16-.31.25.13.02.31.09.42.04.98-.4,2.03-.74,2.97-1.27,1.25-.71,2.55-1.32,3.91-1.72,2.19-.65,4.42-1.23,6.75-1.12Z"/>
        <path class="cls-3" d="m159.36,137.69c-.02.16.11.36.18.54.11-.13.29-.27.36-.42.2-.54.49-1.09.49-1.63,0-.85.49-1.68-.02-2.57-.27-.47-.2-1.14-.31-1.72-.07-.38-.18-.76-.31-1.16-.18-.11-.34-.18-.54-.27-.02.18-.04.34-.04.51,0,.16,0,.31.04.47.22.92.47,1.83.69,2.75.04.18.18.38.13.56-.22.98-.47,1.97-.67,2.95Z"/>
        <path class="cls-3" d="m21.4,130.07c.09-.74.11-1.47.16-2.21.04-.71.07-1.43.13-2.14.07-1.05.18-2.08.25-3.13,0-.11-.25-.25-.42-.34-.11.89-.16,1.76-.22,2.66-.11,1.01-.31,1.99-.4,2.99-.07.76-.04,1.54-.02,2.3,0,.16.13.34.22.49.11-.2.29-.4.31-.63Z"/>
        <path class="cls-3" d="m167.4,155.16c-.45-1.23-.89-2.46-1.39-3.73-.2-.51-.34-1.01-.56-1.47-.04-.11-.36-.09-.54-.13.04.13.04.27.09.4.63,1.76,1.25,3.53,1.9,5.27.09.22.27.4.42.6.07-.27.11-.56.16-.83,0-.04-.07-.07-.09-.11Z"/>
        <path class="cls-3" d="m88.58,122.63c.07-.76.13-1.52.13-2.28.02-1.39.02-2.79,0-4.2h-.45c-.04,1.3-.07,2.59-.11,3.93v2.57c0,.11.13.2.2.31.09-.11.22-.22.22-.34Z"/>
        <path class="cls-3" d="m202.99,189.77c-.54.02-.63-.38-.83-.71-.11-.18-.31-.38-.47-.38-.18,0-.45.2-.49.36-.09.42-.18.92-.09,1.32.16.67.92.8,1.41.4.22-.2.56-.31.87-.49-.11-.2-.25-.49-.4-.49Z"/>
        <path class="cls-3" d="m2.12,137.44c.16-.51.34-1.03.36-1.56.02-.67.85-1.09.47-1.9,0-.18,0-.29-.07-.38-.09-.16-.2-.29-.29-.42-.07.16-.16.34-.2.51-.16.6-.31,1.21-.47,1.81-.16.63-.36,1.27-.47,1.92-.02.16.2.36.31.54.13-.16.29-.31.36-.51Z"/>
        <path class="cls-3" d="m156.16,150.56c.76.4,1.47.85,2.23,1.23.2.11.47.02.69.02-.11-.16-.2-.34-.34-.47-.09-.11-.22-.22-.36-.29-1.03-.56-2.06-1.09-3.15-1.65-.25.09-.4.18-.58.27.11.13.2.34.34.4.38.18.78.29,1.16.49Z"/>
        <path class="cls-3" d="m91.4,124.46c.09-.09.2-.16.25-.27.07-.22.13-.47.13-.69v-3.71c-.11-.22-.22-.38-.31-.56-.09.2-.22.38-.22.58-.07,1.41-.11,2.84-.13,4.27,0,.13.2.25.29.38Z"/>
        <path class="cls-3" d="m2.41,148.81c.04.22.18.4.29.58.07-.18.22-.38.22-.56-.07-1.27-.16-2.52-.27-3.8,0-.11-.18-.2-.27-.31-.09.11-.22.2-.25.34-.09.42-.11.83-.16,1.32.42.56.76,1.07.42,1.76-.09.18-.04.45,0,.67Z"/>
        <path class="cls-3" d="m93.7,116.02s0,.09-.04.18c-.04.13-.07.25-.09.31-.25.71-.51,1.41-.67,2.12-.04.22.22.49.34.74.09-.16.27-.29.31-.47.27-.92.49-1.85.69-2.79.04-.22-.09-.47-.13-.71-.13.2-.27.42-.4.63Z"/>
        <path class="cls-3" d="m139.3,110.99c.6.31,1.23.58,1.85.83.16.04.38-.02.56-.02-.11-.18-.16-.42-.31-.51-.58-.31-1.18-.56-1.81-.87-.22.02-.4.07-.58.13.09.16.16.38.29.45Z"/>
        <path class="cls-3" d="m205.76,185.1c-.71-.2-.76.45-.96.94.18.31.38.56.58.85.09-.22.16-.45.27-.67.04-.11.13-.2.22-.29.13-.13.29-.25.45-.36-.18-.16-.36-.42-.56-.47Z"/>
        <path class="cls-3" d="m23.7,122.25c.18-.83.31-1.68.45-2.5.02-.11-.11-.22-.18-.34-.09.09-.2.18-.22.29-.2.69-.38,1.39-.56,2.17.09.22.18.38.25.56.09-.07.25-.11.27-.18Z"/>
        <path class="cls-3" d="m60.68,133.2c-.36-.13-.78-.16-1.16-.16-.22,0-.42.13-.65.2.2.11.4.22.6.34.07.02.11.09.22.13.27.07.49.2.74.25.25,0,.51-.11.78-.16-.18-.2-.31-.51-.54-.6Z"/>
        <path class="cls-3" d="m147.07,146.74c.2.07.47-.16.69-.27-.16-.11-.29-.25-.51-.38-.49-.13-.89-.29-1.34-.4-.07-.02-.27.11-.29.2-.02.09.09.27.18.31.42.2.83.42,1.27.54Z"/>
        <path class="cls-3" d="m154.67,113.34l.02.02c.45.36.92.69,1.41,1.01.13.09.36,0,.54-.02-.07-.16-.11-.36-.22-.45-.22-.2-.49-.34-.78-.54,0,0-.02,0-.02-.02h-.02c-.22-.11-.4-.27-.6-.34-.13-.04-.31,0-.47.02.04.11.07.25.13.31h.02Z"/>
        <path class="cls-3" d="m205.36,159.85c.07.09.16.18.22.27.07-.11.16-.22.18-.34.02-.13,0-.27,0-.47-.02-.16-.04-.25-.09-.29-.18-.18-.38-.34-.56-.49-.02.27-.07.51-.02.76.04.2.16.38.27.56Z"/>
        <path class="cls-3" d="m164.21,147.56c0-.16.02-.34-.04-.45-.11-.18-.31-.31-.47-.47-.07.2-.16.4-.18.6s.07.38.16.6c.2.11.36.18.49.22.02-.18.04-.34.04-.51Z"/>
        <path class="cls-3" d="m22.9,125.85l.2.67c.13-.25.25-.47.36-.71.02-.07.02-.18,0-.27-.04-.2-.11-.4-.16-.6-.16.11-.34.2-.51.38.04.22.09.38.11.54Z"/>
        <path class="cls-3" d="m206.45,165.06c.11.16.27.29.42.45.09-.2.18-.4.22-.65-.11-.18-.2-.36-.34-.45-.13-.11-.31-.13-.47-.2.02.16,0,.34.02.49.02.13.07.27.13.36Z"/>
        <path class="cls-3" d="m167.33,157.37c.11.29.25.56.4.83.02.02.25-.02.25-.02-.02-.29-.07-.58-.09-.87-.02-.34-.02-.65-.51-.29-.02.13-.07.27-.04.36Z"/>
        <path class="cls-3" d="m209.98,177.23c-.2.07-.38.16-.6.29.18.22.4.42.63.6.07-.18.16-.36.16-.54,0-.11-.16-.36-.18-.36Z"/>
        <path class="cls-3" d="m204.06,187.96c-.13.09-.25.31-.2.45.04.13.25.2.42.27.09-.25.16-.47.22-.69-.16-.02-.36-.09-.45-.02Z"/>
        <path class="cls-3" d="m50.94,82.06c-.49-1.85-1.01-3.73-1.74-5.47-.6-1.41-1.5-2.73-2.41-3.95-1.07-1.45-2.35-2.73-4.02-3.51-1.27-.58-2.55-1.18-3.87-1.63-1.14-.38-2.23-.96-3.51-1.01-1.07-.02-2.14-.31-3.22-.51-.98-.18-1.97-.51-2.95,0-.13.07-.36.02-.54,0-1.34-.13-2.68-.27-4.02-.4-.13-.02-.29-.04-.4,0-.11.02-.18.16-.27.25.11.04.2.11.31.13.38.07.74.09,1.12.16.13,0,.25.09.38.13-.13.09-.29.27-.4.25-1.3-.4-2.55.07-3.82.16-.11,0-.2.18-.31.27.11.04.22.11.34.11.89-.04,1.76-.16,2.64-.11,1.05.07,2.12.13,3.13.42,2.08.63,4.2,1.14,6.05,2.32,2.26,1.43,4.42,2.93,6.19,5,2.03,2.39,2.79,5.21,2.97,8.2.09,1.5-.07,3.04-.27,4.56-.2,1.63-.56,3.24-.92,4.85-.42,1.83-.92,3.66-1.41,5.47-.71,2.59-1.43,5.18-2.19,7.77-1.01,3.4-2.66,6.5-4.11,9.72-.65,1.43-1.47,2.79-2.26,4.16-.54.94-1.09,1.88-1.74,2.73-1.18,1.59-2.5,3.08-3.66,4.69-.8,1.12-1.45,2.32-2.17,3.51-.09.13-.13.31-.2.47-.07-.18-.16-.34-.22-.51-.07-.13-.07-.34-.18-.4-.69-.42-.6-1.18-.8-1.81-.04-.16-.18-.29-.29-.42-.04.18-.09.34-.11.49-.13,1.25-.27,2.5-.42,3.75-.02.11-.2.2-.29.31-.09-.09-.2-.18-.25-.29-.04-.11,0-.27-.07-.38-.07-.11-.22-.2-.34-.29-.04.13-.11.25-.13.38-.02.2.04.42-.02.6-.09.25-.27.45-.42.67-.2-.18-.6-.31-.63-.51-.09-.8-.07-1.59-.09-2.39,0-.2-.07-.42-.11-.65-.11.16-.22.31-.36.47-.09.11-.18.22-.27.34-.04-.11-.13-.25-.13-.38-.02-.63.11-1.32-.07-1.9-.45-1.45-.67-2.9-.65-4.42.02-.36-.13-.74-.2-1.12-.16.4-.31.78-.47,1.18v.07c-.13,1.05-.27,2.08-.42,3.13,0,.11-.09.2-.16.29-.09-.09-.22-.18-.25-.29-.58-2.23-1.12-4.49-1.23-6.79-.09-1.65-.02-3.31.13-4.96.16-1.56.74-3.04,1.5-4.4.31-.54.67-1.01.96-1.54.29-.54-.02-1.01-.63-1.03-.8-.02-1.07.29-1.32,1.07-.22.71-.6,1.39-.94,2.08-.6,1.23-1.18,2.46-1.9,3.62-.63,1.03-1.5,1.9-1.54,3.28-.31.74-.65,1.41-.92,2.01-.34.69-.6,1.41-.96,2.08-.71,1.3-1.56,2.52-2.19,3.84-.63,1.3-1.03,2.7-1.54,4.04-.09.2-.22.4-.34.6-.02-.22-.04-.47-.07-.71-.02-.2,0-.38,0-.58-.18.02-.34.07-.51.09-.11.02-.2.04-.29.07.02-.11.02-.22.09-.29.27-.34.51-.76.87-.98.49-.29.49-.49.11-.85-.13-.13-.27-.38-.25-.56.02-.38.09-.78.25-1.12.29-.6.22-1.5,1.16-1.7.09,0,.13-.16.2-.25.31-.45.58-.96.94-1.39.22-.29.42-.47.09-.85-.16-.18-.11-.6-.04-.87.07-.29.31-.51.45-.78.04-.16,0-.34,0-.51-.16.04-.38.04-.45.16-.31.47-.63.94-.87,1.43-.4.83-.71,1.7-1.16,2.48-.98,1.68-1.5,3.53-2.03,5.36-.2.65-.34,1.36-.71,1.9-.56.8-.34,1.56-.09,2.35.04.11.25.2.38.29.07-.16.16-.29.16-.42-.02-.31-.09-.6-.13-.92-.11-.78.56-1.25.74-1.9.02-.11.2-.2.31-.29.07.16.18.31.18.47,0,.27-.02.58-.13.83-.31.78.2,1.79-.67,2.41-.09.09-.09.29-.13.42-.13.42-.34.83-.4,1.27-.04.34,0,.69.07,1.03.04.27.34.54.31.76-.13.96-.38,1.88-.51,2.81-.09.74-.07,1.5-.16,2.23-.04.38-.22.74-.34,1.09-.69-.45-.34.45-.63.49.07.22.11.47.16.69.13-.13.27-.27.4-.4.09-.09.2-.16.31-.22.02.13.09.25.09.36.07.98.09,1.99.16,2.97.02.18.13.36.2.54.07-.16.18-.31.2-.47.07-.76.02-1.54.18-2.28.16-.65.34-1.27.13-1.97-.07-.22-.02-.54.07-.78.07-.2.27-.36.42-.54.04.18.09.36.18.54.09.2.22.36.34.54.13-.16.29-.31.38-.51.38-.83.49-1.68.56-2.59.09-1.21.34-2.39.49-3.57.07-.49,0-.96.02-1.45,0-.09.11-.18.18-.27.09.07.2.13.22.22.07.38.11.74.13,1.12.02.58,0,1.14.02,1.72,0,.09.13.16.2.25.07-.04.2-.11.2-.18.07-.42.16-.85.13-1.25-.04-.83-.29-1.63-.25-2.44.11-1.85.47-3.71.49-5.56.02-1.3.34-2.41,1.01-3.46.07-.09.16-.2.25-.29.04.16.16.31.13.47-.22,1.81-.56,3.6-.63,5.38-.07,1.85.2,3.69.22,5.54,0,1.34-.2,2.68-.25,4.02,0,.38.04.87.27,1.12.38.4.25.85.27,1.27,0,.36.31.85-.34,1.05-.04.02-.07.27-.07.42-.04.76-.09,1.54-.13,2.3-.04.51-.27.54-.58.18-.27-.27-.34-.27-.42.16-.09.47-.38.89-.6,1.32-.04.07-.29.11-.31.07-.11-.13-.25-.42-.22-.45.69-.54.4-1.32.47-2.01.04-.49-.04-1.09.18-1.5.31-.6.89-1.05,1.32-1.61.16-.22.2-.54.27-.8,0-.02-.25-.16-.29-.13-.6.34-.87-.18-1.21-.49-.09-.07-.16-.11-.25-.18-.07.11-.18.22-.18.34.02.31.13.63.11.92-.11,1.16-.27,2.32-.4,3.49-.02.25-.07.51-.13.76-.02.09-.09.2-.16.2s-.2-.07-.22-.13c-.07-.18-.13-.38-.16-.56-.04-.4-.04-.8-.11-1.21-.02-.09-.2-.16-.29-.25-.04.09-.16.2-.16.29-.04,1.27-.11,2.52-.13,3.8-.02.31.11.6.11.92,0,.16-.09.31-.16.47-.11-.13-.29-.25-.34-.4-.11-.36-.11-.74-.2-1.09-.04-.25-.18-.45-.27-.67-.09.25-.18.47-.27.69-.02.07-.02.13,0,.2.27,1.14-.04,2.39.8,3.4.07.09-.11.36-.18.54-.13-.16-.29-.27-.36-.45-.09-.25-.07-.51-.16-.76-.02-.11-.18-.2-.29-.29-.02.11-.09.25-.09.36.07,1.07-.13,2.08-.67,3.04-.36.63-.51,1.36-.71,2.06-.45,1.59-.76,3.22-1.27,4.78-.45,1.39-1.14,2.73-.92,4.22.16.98.38,1.94.69,2.88.76,2.35,2.14,4.2,4.2,5.61,1.09.74,2.26,1.21,3.51,1.54,1.56.42,3.11.94,4.69,1.27,1.3.27,2.5-.2,3.71-.67,1.52-.58,2.9-1.34,3.98-2.66.85-1.05,1.88-1.94,3.24-2.3.45-.11.94-.22,1.34-.42.89-.47,1.74-1.03,2.64-1.47,2.06-1.03,3.87-2.28,5.29-4.16,1.47-1.97,2.64-4.09,3.66-6.28,1.01-2.14,1.63-4.49,2.41-6.77.6-1.72.89-3.51,1.16-5.32.31-2.14,1.05-4.22,1.59-6.34.31-1.3.67-2.57.96-3.87.27-1.21.47-2.41.74-3.62.65-3.02,1.88-5.88,2.3-8.96.2-1.43.54-2.84.85-4.24.34-1.45.65-2.9.98-4.36l.36-1.56c.13-.6.27-1.23.4-1.83.2-.89.31-1.83.49-2.75.38-1.97.8-3.93,1.16-5.92.2-1.05.29-2.12.42-3.19.18-1.54.38-3.06.54-4.6.09-.89.09-1.81.16-2.7.02-.47.04-.94.13-1.39.27-1.5.31-3.02.11-4.51-.2-1.47-.45-2.95-.83-4.4Zm-21.85-15.01c-.6-.11-1.21-.25-1.81-.4-.09-.02-.16-.11-.22-.16.04-.04.09-.11.13-.11.34.04.69.09,1.03.13.42.04.69.09.98.16.07,0,.11.13.16.22-.09.04-.2.18-.27.16Zm2.88-.25c-.07,0-.13,0-.2-.02-.22-.09-.47-.2-.71-.29.29,0,.6.02.89.02.25.11.36.22.47.31-.13,0-.29-.02-.45-.02ZM5.85,133.67c-.27,1.47.02,2.99-.58,4.42-.09.2-.16.42-.25.65-.04.47-.07.83-.11,1.21-.04.16-.22.27-.34.4-.07-.16-.22-.34-.2-.47.16-.98.34-1.97.56-2.93.16-.67.31-1.3.16-2.03-.09-.47.22-1.03.38-1.54,0-.04.13-.09.16-.07.09.11.25.25.22.36Zm.76-3.13s-.18-.02-.18-.02c.02-.36.04-.69.09-1.03.02-.07.04-.11.07-.18.11-.22.25-.47.36-.69.02.27.04.56.07.83-.18.4-.29.74-.4,1.09Zm-1.88,19.66c.11-.02.25-.07.36-.09.02.16.04.31.07.47-.18-.09-.29-.25-.42-.38Zm4.62-9.32c-.11-.18-.22-.34-.34-.49-.04-.92-.11-1.68-.11-2.44,0-.02.13-.11.18-.11.09.02.22.09.22.16.02.69.04,1.36.07,2.06,0,.13-.07.25-.07.38,0,.16.02.29.04.45Z"/>
        <path class="cls-3" d="m148.23,113.34s.02.09.04.13c.2.45.25,1.07.98,1.01,0,.11.04.25,0,.34,0,.02-.02.07-.04.09h1.3c-.11-.07-.2-.13-.31-.2-.13-.07-.29-.29-.27-.38.22-.6.13-.74-.51-.85-.13-.02-.27-.07-.4-.13h0c-.11-.02-.22-.07-.31-.13-.22-.11-.45-.29-.67-.45.07.2.11.4.2.58h0Z"/>
        <path class="cls-3" d="m151.23,113.98c.31.29.58.63.94.87.02.02.04.04.07.04h1.14c-.36-.22-.71-.45-1.07-.67-.31-.18-.71-.16-1.07-.25Z"/>
        <path class="cls-3" d="m138.45,114.41c.27.16.56.34.83.49h0c.51.29,1.01.6,1.54.89.83.47,1.54,1.14,2.57,1.09.16,0,.29-.04.42-.09-.11-.11-.22-.25-.36-.31-.8-.4-1.61-.78-2.44-1.21-.09-.04-.16-.04-.2-.11-.16-.09-.31-.18-.47-.27h0c-.54-.29-1.05-.6-1.59-.92-.18-.09-.42,0-.65,0,.11.16.18.34.34.42Z"/>
        <path class="cls-3" d="m145.98,114.48c-.51-.34-1.05-.65-1.61-.92-.11-.07-.31.09-.47.16.04.11.09.2.16.34.49.29.96.58,1.43.85h0c.31.18.6.36.92.54.09.07.25-.02.38-.04-.02-.11-.02-.27-.09-.34-.04-.04-.11-.09-.16-.16h0c-.18-.13-.36-.29-.56-.42Z"/>
      </g>
      <rect class="cls-2" x="55.83" y="115.01" width="71.89" height="1.79"/>
      <path class="cls-3" d="m113.69,111.1c.03-.71.22-1.34.47-1.97.37-.93.7-1.88,1.04-2.82.29-.81.62-1.62.85-2.45.22-.76.31-1.56-.07-2.31-.26-.51-.75-.72-1.26-.89-.09-.03-.16-.1-.24-.14.07-.06.12-.16.2-.19.82-.26,1.43-.82,2.09-1.34.46-.37,1.05-.36,1.62-.22.86.21,1.26.86,1.54,1.63.28.79.22,1.57,0,2.36-.22.79-.42,1.58-.68,2.36-.18.53-.47,1.02-.71,1.53-.03.06-.05.13-.06.2,0,.05,0,.1,0,.15.05,0,.1,0,.13-.03.52-.27,1.03-.53,1.54-.81.64-.36,1.26-.75,1.91-1.09.83-.44,1.67-.84,2.51-1.25.76-.37,1.53-.74,2.31-1.06.64-.26,1.31-.46,1.97-.67.36-.11.72-.25,1.09-.27.43-.03.87.07,1.09.51.11.23.21.49.23.74.04.45.02.9,0,1.35-.03.83.11,1.64.36,2.43.13.41.2.83.35,1.23.23.64.53.68,1.09.43.45-.2.84-.48,1.21-.81.58-.52,1.18-1.02,1.79-1.51.42-.34.85-.68,1.31-.97.71-.45,1.43-.92,2.19-1.28.89-.42,1.82-.74,2.75-1.09.61-.23,1.25-.25,1.88-.1.51.12.74.51.83,1,.1.54.23,1.07.33,1.6.05.29.06.59.12.88.09.43.2.87.34,1.29.16.49.32.99.57,1.45.38.71.88,1.32,1.71,1.52.2.05.43-.01.64-.04.14-.02.27-.06.4-.09-.01.15.02.33-.05.45-.36.71-.97,1.07-1.71,1.32-.46.15-.91.26-1.37.2-1.14-.15-2.07-.67-2.59-1.75-.21-.43-.31-.92-.48-1.37-.27-.72-.54-1.44-.85-2.15-.26-.6-.56-.68-1.18-.48-1.2.4-2.28,1.05-3.38,1.66-.51.29-.94.73-1.4,1.1-.48.39-.97.78-1.45,1.17-.38.3-.75.62-1.14.91-.71.52-1.52.69-2.37.56-.52-.08-.99-.32-1.39-.7-.8-.76-1.3-1.67-1.57-2.72-.12-.46-.18-.94-.25-1.41-.04-.31-.03-.62-.07-.93-.02-.17-.06-.35-.14-.5-.16-.3-.43-.12-.64-.08-.7.12-1.32.46-1.96.75-.68.31-1.37.6-2.01.98-.79.46-1.57.95-2.29,1.51-.83.63-1.6,1.35-2.39,2.03-.22.19-.41.41-.62.61-.49.45-.96.9-1.47,1.32-.37.3-.81.2-1.23.08-.75-.22-1.19-.73-1.41-1.47-.03-.1-.03-.21-.04-.35Z"/>
      <path class="cls-3" d="m77.61,102.16c.44.48.51,1.02.43,1.64-.08.55-.1,1.12-.03,1.68.09.78.29,1.54.43,2.31.11.61.81,1.12,1.46.68,1.19-.81,2.39-1.59,3.59-2.38.5-.33,1.01-.63,1.52-.94.44-.27.87-.55,1.33-.79.57-.3,1.14-.58,1.73-.83.42-.18.87-.32,1.31-.41.45-.09.91-.16,1.37-.14.64.03,1.37.81,1.44,1.45.05.52.07,1.04.12,1.55.11,1.15.27,2.3.87,3.31.24.4.58.74.91,1.08.09.09.28.09.43.11.45.07.86-.08,1.26-.28.15-.07.31-.13.46-.17.06-.01.13.04.2.06-.03.06-.04.13-.08.17-.19.23-.37.47-.58.69-.55.57-1.19,1.01-1.93,1.31-.87.36-1.65.17-2.38-.39-.26-.2-.59-.32-.84-.53-.63-.52-.94-1.25-1.18-2-.1-.33-.1-.69-.18-1.02-.11-.48-.2-.99-.58-1.36-.1-.1-.28-.17-.42-.18-.97-.06-1.79.37-2.6.83-.54.3-1.08.62-1.59.97-.81.56-1.61,1.14-2.4,1.72-.8.59-1.74.89-2.68,1.11-1.01.23-1.89-.11-2.67-.81-.68-.62-.98-1.42-1.19-2.26-.12-.47-.11-.96-.18-1.44-.06-.38-.14-.76-.23-1.14-.05-.2-.45-.35-.71-.26-1.23.44-2.5.77-3.64,1.44-.74.43-1.45.88-2.1,1.43-.45.38-.92.73-1.37,1.1-.2.16-.39.34-.57.51-.65.61-1.32,1.22-1.95,1.85-.37.37-.7.78-1.06,1.16-.38.4-.84.64-1.42.58-.84-.09-1.36-.52-1.44-1.46-.07-.87.27-1.63.56-2.41.3-.79.61-1.58.9-2.38.19-.52.36-1.05.5-1.59.1-.37.18-.76.22-1.14.07-.59.13-1.19.17-1.78.03-.49-.1-.97-.3-1.42-.15-.31-.22-.71-.69-.77-.12-.02-.21-.2-.06-.33.42-.37.82-.79,1.29-1.08.68-.43,1.44-.55,2.22-.23.67.27,1.21.7,1.56,1.34.2.37.25.76.08,1.17-.33.8-.63,1.61-.96,2.41-.48,1.17-.98,2.32-1.47,3.49-.02.05-.01.11-.01.17.06-.02.12-.02.17-.05.76-.55,1.48-1.14,2.27-1.63,1.1-.68,2.17-1.43,3.36-1.97.61-.28,1.17-.64,1.77-.94.82-.41,1.69-.68,2.57-.91.68-.17,1.37-.31,2.07-.28.34.02.64.13.9.38Z"/>
      <path class="cls-3" d="m100.35,111.08c-.21-.47-.35-.94-.29-1.44.09-.74.27-1.45.6-2.13.29-.58.49-1.2.74-1.8.24-.57.48-1.13.63-1.73.12-.46.3-.91.15-1.41-.09-.31-.24-.57-.5-.73-.19-.12-.15-.21-.02-.31.47-.36,1-.6,1.58-.71.77-.15,1.3.36,1.88.7.29.17.56.41.74.69.34.52.22,1.08-.11,1.57-.42.62-.68,1.3-.94,2-.18.48-.4.96-.62,1.43-.38.82-.67,1.67-.54,2.57.09.62.23,1.27.64,1.77.23.28.62.42.94.63.08.05.17.11.25.17-.08.04-.16.07-.25.11-.2.09-.41.19-.61.28-.65.29-1.32.21-1.98.09-.66-.12-1.27-.41-1.7-.96-.2-.25-.4-.51-.61-.78Z"/>
      <path class="cls-3" d="m157.02,110.98c.21.52.52.73,1.04.73.07,0,.13,0,.2,0,.15.02.3.05.44.08-.12.12-.22.29-.37.36-.36.18-.76.29-1.12.47-.33.16-.68.25-1.04.2-.93-.13-1.74-.47-2.24-1.33-.15-.26-.29-.53-.42-.81-.05-.12-.07-.25-.08-.39-.03-.26-.05-.53-.06-.79-.03-1.03.32-1.94.74-2.86.44-.96.81-1.95,1.14-2.95.14-.43.11-.92.13-1.38,0-.13-.05-.29-.14-.38-.16-.17-.02-.25.08-.28.48-.16.86-.48,1.25-.77.25-.19,1.19-.22,1.49.08.24.24.59.36.84.59.6.56.66,1.49.22,2.18-.5.77-1.01,1.54-1.44,2.35-.3.56-.53,1.17-.71,1.78-.13.45-.1.95-.19,1.41-.08.42-.07.83.07,1.23.05.15.11.29.17.46Z"/>
      <path class="cls-3" d="m158.65,93.64c-.29-.17-.54-.33-.8-.49-.36-.23-.56-.54-.54-.98,0-.21.03-.44,0-.64-.08-.45.21-.67.52-.86.36-.21.74-.35,1.18-.34.47.01.95-.04,1.41.01.46.05.88.27,1.26.55.49.36.73.85.69,1.45-.01.2-.1.41-.21.58-.14.22-.35.4-.53.6-.22.25-.52.34-.84.34-.51,0-1.01-.02-1.52-.06-.19-.01-.38-.11-.6-.16Z"/>
    </g>
  </g>
</svg>